<svg width="24" height="24" viewBox="0 0 24 24" fill="none" xmlns="http://www.w3.org/2000/svg">
<path fill-rule="evenodd" clip-rule="evenodd" d="M18.2378 15.1157C19.0491 14.3833 19.7144 13.6416 20.1888 13.0657C20.5769 12.5944 20.771 12.3588 20.771 12C20.771 11.6412 20.5769 11.4056 20.1888 10.9343C18.7687 9.21014 15.6365 6 12.0007 6C11.1613 6 10.3486 6.17115 9.57769 6.45563L12.1246 9.00251C13.6829 9.06577 14.935 10.3178 14.9982 11.8762L18.2378 15.1157ZM9.39381 10.5144C9.14368 10.9524 9.00074 11.4595 9.00074 12C9.00074 13.6569 10.3439 15 12.0007 15C12.5412 15 13.0484 14.8571 13.4863 14.6069L15.7879 16.9085C14.6368 17.5555 13.3536 18 12.0007 18C8.36501 18 5.2328 14.7899 3.81271 13.0657C3.42455 12.5944 3.23047 12.3588 3.23047 12C3.23047 11.6412 3.42455 11.4056 3.81271 10.9343C4.48614 10.1167 5.54458 8.96489 6.85916 7.97974L9.39381 10.5144Z" fill="#33363F"/>
<path d="M5 2L21 18" stroke="#33363F" stroke-width="2"/>
</svg>
